<svg width="81" height="80" viewBox="0 0 81 80" fill="none" xmlns="http://www.w3.org/2000/svg">
<g clip-path="url(#clip0_1_348)">
<path d="M15.6484 33.3334H52.0496C52.4884 33.3334 52.9093 33.1578 53.2196 32.8452C53.5299 32.5327 53.7042 32.1087 53.7042 31.6667C53.7042 31.2247 53.5299 30.8008 53.2196 30.4882C52.9093 30.1756 52.4884 30 52.0496 30H15.6484C15.2095 30 14.7887 30.1756 14.4784 30.4882C14.1681 30.8008 13.9938 31.2247 13.9938 31.6667C13.9938 32.1087 14.1681 32.5327 14.4784 32.8452C14.7887 33.1578 15.2095 33.3334 15.6484 33.3334ZM42.122 38.3334H15.6484C15.2095 38.3334 14.7887 38.509 14.4784 38.8215C14.1681 39.1341 13.9938 39.558 13.9938 40C13.9938 40.4421 14.1681 40.866 14.4784 41.1786C14.7887 41.4911 15.2095 41.6667 15.6484 41.6667H42.122C42.5608 41.6667 42.9817 41.4911 43.292 41.1786C43.6023 40.866 43.7766 40.4421 43.7766 40C43.7766 39.558 43.6023 39.1341 43.292 38.8215C42.9817 38.509 42.5608 38.3334 42.122 38.3334ZM15.6484 25H52.0496C52.4884 25 52.9093 24.8244 53.2196 24.5119C53.5299 24.1993 53.7042 23.7754 53.7042 23.3334C53.7042 22.8913 53.5299 22.4674 53.2196 22.1549C52.9093 21.8423 52.4884 21.6667 52.0496 21.6667H15.6484C15.2095 21.6667 14.7887 21.8423 14.4784 22.1549C14.1681 22.4674 13.9938 22.8913 13.9938 23.3334C13.9938 23.7754 14.1681 24.1993 14.4784 24.5119C14.7887 24.8244 15.2095 25 15.6484 25ZM15.6484 16.6667H52.0496C52.4884 16.6667 52.9093 16.4911 53.2196 16.1786C53.5299 15.866 53.7042 15.4421 53.7042 15C53.7042 14.558 53.5299 14.1341 53.2196 13.8215C52.9093 13.509 52.4884 13.3334 52.0496 13.3334H15.6484C15.2095 13.3334 14.7887 13.509 14.4784 13.8215C14.1681 14.1341 13.9938 14.558 13.9938 15C13.9938 15.4421 14.1681 15.866 14.4784 16.1786C14.7887 16.4911 15.2095 16.6667 15.6484 16.6667ZM38.8128 66.6667C37.9524 66.6667 37.2575 63.3334 34.1799 63.3334C31.1024 63.3334 30.3909 66.6667 29.5305 66.6667C28.6701 66.6667 27.9917 63.3334 24.9141 63.3334C21.8366 63.3334 21.1251 66.6667 20.2813 66.6667C19.4374 66.6667 18.7425 63.3334 15.6484 63.3334C15.2095 63.3334 14.7887 63.509 14.4784 63.8215C14.1681 64.1341 13.9938 64.558 13.9938 65C13.9938 65.4421 14.1681 65.866 14.4784 66.1786C14.7887 66.4911 15.2095 66.6667 15.6484 66.6667C16.5088 66.6667 17.1872 70 20.2813 70C23.3754 70 24.0538 66.6667 24.9141 66.6667C25.7745 66.6667 26.4529 70 29.5305 70C32.608 70 33.3195 66.6667 34.1799 66.6667C35.0403 66.6667 35.7187 70 38.8128 70C39.2516 70 39.6725 69.8244 39.9828 69.5119C40.2931 69.1993 40.4674 68.7754 40.4674 68.3334C40.4674 67.8913 40.2931 67.4674 39.9828 67.1549C39.6725 66.8423 39.2516 66.6667 38.8128 66.6667Z" fill="#005CCE"/>
<path d="M75.214 16.6667C75.6529 16.6667 76.0737 16.4911 76.384 16.1785C76.6943 15.8659 76.8686 15.442 76.8686 15V8.33333C76.8686 6.1232 75.997 4.00358 74.4455 2.44078C72.894 0.877974 70.7898 0 68.5956 0L12.3392 0C10.145 0 8.04076 0.877974 6.48927 2.44078C4.93778 4.00358 4.06616 6.1232 4.06616 8.33333V78.3333C4.06616 78.7754 4.24049 79.1993 4.55078 79.5118C4.86108 79.8244 5.28194 80 5.72076 80H61.9772C62.4161 80 62.8369 79.8244 63.1472 79.5118C63.4575 79.1993 63.6318 78.7754 63.6318 78.3333V51.6667L76.091 30C76.4924 29.336 76.758 28.5978 76.8722 27.829C76.9863 27.0601 76.9468 26.2759 76.7558 25.5227C76.5648 24.7694 76.2263 24.0622 75.7601 23.4426C75.2939 22.823 74.7094 22.3035 74.0411 21.9147C73.3727 21.5259 72.634 21.2756 71.8682 21.1784C71.1024 21.0813 70.3251 21.1394 69.582 21.3492C68.8388 21.559 68.1447 21.9163 67.5406 22.4001C66.9365 22.884 66.4345 23.4846 66.0641 24.1667L63.6318 28.3333V16.6667H75.214ZM73.5594 8.33333V13.3333H63.6318V8.33333C63.6318 7.00725 64.1548 5.73548 65.0857 4.7978C66.0166 3.86012 67.2791 3.33333 68.5956 3.33333C69.9121 3.33333 71.1747 3.86012 72.1056 4.7978C73.0365 5.73548 73.5594 7.00725 73.5594 8.33333ZM60.3226 76.6667H7.37537V8.33333C7.37537 7.00725 7.89834 5.73548 8.82923 4.7978C9.76013 3.86012 11.0227 3.33333 12.3392 3.33333H61.9772C59.6773 6.36667 60.3226 6.03333 60.3226 34.05L47.4498 56.5167C47.1685 57 47.2844 56.5167 46.6722 66.5167C46.6586 66.7438 46.6914 66.9713 46.7684 67.1852C46.8455 67.3991 46.9652 67.5949 47.1202 67.7604C47.2752 67.9259 47.4623 68.0577 47.6698 68.1476C47.8773 68.2376 48.1009 68.2837 48.3268 68.2833C49.0382 68.2833 48.6908 68.2833 56.9638 62.8667C57.394 62.5833 57.2285 62.75 60.273 57.35L60.3226 76.6667ZM50.395 58.7333C51.8199 58.9426 53.1108 59.6941 54.002 60.8333L50.1137 63.4167L50.395 58.7333ZM56.0207 58.1C54.8512 56.8724 53.3591 56.0053 51.7187 55.6L65.1375 32.2667L69.4395 34.7667L56.0207 58.1ZM68.9266 25.7C69.2557 25.1254 69.7979 24.706 70.434 24.5341C71.0702 24.3621 71.748 24.4518 72.3185 24.7833C72.889 25.1149 73.3053 25.6611 73.476 26.3018C73.6467 26.9426 73.5576 27.6254 73.2285 28.2L71.1603 31.8167L66.941 29.3167L68.9266 25.7Z" fill="#005CCE"/>
</g>
<defs>
<clipPath id="clip0_1_348">
<rect width="79.4209" height="80" fill="white" transform="translate(0.756958)"/>
</clipPath>
</defs>
</svg>
