<svg width="60" height="60" viewBox="0 0 60 60" fill="none" xmlns="http://www.w3.org/2000/svg">
<path d="M1.54545 35.8182L4.90909 37C5.18182 37.9091 5.54545 38.9091 6 39.7273L4.45454 42.9091C4.27272 43.2727 4.36363 43.6364 4.63636 44L8.54545 47.9091C8.81818 48.1818 9.27273 48.2727 9.63636 48.0909L12.8182 46.5454C13.7273 47 14.6364 47.3636 15.5455 47.6364L16.7273 51C16.8182 51.3636 17.1818 51.6364 17.5455 51.6364H23.0909C23.4545 51.6364 23.8182 51.3636 23.9091 51L25.0909 47.6364C26 47.3636 26.9091 47 27.8182 46.5454L31 48.0909C31.1818 48.1818 31.4545 48.1818 31.6364 48.0909C31.8182 48.4545 31.9091 48.8182 32.0909 49.1818L30.9091 51.6364C30.7273 52 30.8182 52.3636 31.0909 52.6364L34.1818 55.7273C34.4545 56 34.9091 56.0909 35.2727 55.9091L37.7273 54.7273C38.3636 55.0909 39.0909 55.3636 39.7273 55.5455L40.6364 58.0909C40.7273 58.4545 41.0909 58.7273 41.4545 58.7273H45.8182C46.1818 58.7273 46.5455 58.4545 46.6364 58.0909L47.5455 55.5455C48.2727 55.3636 48.9091 55.0909 49.5455 54.7273L52 55.9091C52.3636 56.0909 52.7273 56 53 55.7273L56.0909 52.6364C56.3636 52.3636 56.4545 51.9091 56.2727 51.5454L55.0909 49.0909C55.4545 48.4545 55.7273 47.7273 55.9091 47.0909L58.4545 46.1818C58.8182 46.0909 59.0909 45.7273 59.0909 45.3636V41C59.0909 40.6364 58.8182 40.2727 58.4545 40.1818L55.9091 39.2727C55.7273 38.5455 55.4545 37.9091 55.0909 37.2727L56.2727 34.8182C56.4545 34.4545 56.3636 34.0909 56.0909 33.7273L53 30.6364C52.7273 30.3636 52.2727 30.2727 52 30.4545L49.5455 31.8182C48.9091 31.4545 48.1818 31.1818 47.5455 31L46.6364 28.4545C46.5455 28.0909 46.1818 27.8182 45.8182 27.8182H41.4545C41.0909 27.8182 40.7273 28.0909 40.6364 28.4545L39.7273 31V29.4545C39.7273 29.0909 39.4545 28.7273 39.0909 28.6364L35.7273 27.4545C35.4545 26.5455 35.0909 25.6364 34.5455 24.7273L36.0909 21.5454C36.2727 21.1818 36.1818 20.8182 35.9091 20.4545L32 16.5454C31.7273 16.2727 31.2727 16.1818 30.9091 16.3636L27.7273 17.9091C26.8182 17.4545 25.9091 17.0909 25 16.8182L23.8182 13.4545C23.7273 13.0909 23.3636 12.8182 23 12.8182H17.4545C17.0909 12.8182 16.7273 13.0909 16.6364 13.4545L15.4545 16.8182C14.5455 17.0909 13.6364 17.4545 12.7273 17.9091L9.63636 16.3636C9.27273 16.1818 8.90909 16.2727 8.54545 16.5454L4.63636 20.4545C4.36363 20.7273 4.27272 21.1818 4.45454 21.5454L6 24.7273C5.54545 25.6364 5.18182 26.5455 4.90909 27.4545L1.54545 28.6364C1.18182 28.7273 0.909088 29.0909 0.909088 29.4545V35C0.909088 35.3636 1.18182 35.7273 1.54545 35.8182ZM40.6364 32.5454C40.9091 32.4545 41.1818 32.2727 41.2727 32L42.0909 29.6364H45.1818L46 32C46.0909 32.2727 46.3636 32.5454 46.6364 32.5454C47.4545 32.8182 48.3636 33.0909 49.0909 33.5455C49.3636 33.7273 49.6364 33.7273 49.9091 33.5455L52.1818 32.4545L54.3636 34.6364L53.2727 36.9091C53.1818 37.1818 53.1818 37.5455 53.2727 37.7273C53.7273 38.5455 54.0909 39.3636 54.2727 40.1818C54.3636 40.4545 54.5455 40.7273 54.8182 40.8182L57.1818 41.6364V44.7273L54.8182 45.5454C54.5455 45.6364 54.2727 45.9091 54.2727 46.1818C54 47.0909 53.7273 47.9091 53.2727 48.7273C53.0909 49 53.0909 49.2727 53.2727 49.5455L54.3636 51.8182L52.1818 54L49.9091 52.9091C49.6364 52.8182 49.3636 52.8182 49.0909 52.9091C48.2727 53.3636 47.4545 53.7273 46.6364 53.9091C46.3636 54 46.0909 54.1818 46 54.4545L45.1818 56.8182H42.0909L41.2727 54.5455C41.1818 54.2727 40.9091 54 40.6364 54C39.8182 53.7273 38.9091 53.4545 38.1818 53C37.9091 52.8182 37.6364 52.8182 37.3636 53L35.0909 54.0909L32.9091 51.8182L34 49.5455C34.0909 49.2727 34.0909 48.9091 34 48.7273C33.6364 48.1818 33.3636 47.5455 33.1818 46.8182L36 44C36.2727 43.7273 36.3636 43.2727 36.1818 42.9091L34.5455 39.7273C35 38.8182 35.3636 37.9091 35.7273 37L39.0909 35.8182C39.4545 35.7273 39.7273 35.3636 39.7273 35V32.9091C40 32.7273 40.3636 32.6364 40.6364 32.5454ZM2.72727 30.0909L5.90909 29C6.18182 28.9091 6.45454 28.6364 6.45454 28.3636C6.81818 27.2727 7.27273 26.1818 7.81818 25.1818C8 24.9091 8 24.6364 7.81818 24.3636L6.36363 21.2727L9.36363 18.2727L12.3636 19.8182C12.6364 19.9091 12.9091 19.9091 13.1818 19.8182C14.1818 19.2727 15.2727 18.8182 16.3636 18.4545C16.6364 18.3636 16.9091 18.1818 17 17.9091L18.0909 14.7273H22.2727L23.3636 17.9091C23.4545 18.1818 23.7273 18.4545 24 18.4545C25.0909 18.7273 26.1818 19.1818 27.1818 19.8182C27.4545 20 27.7273 20 28 19.8182L31 18.2727L34 21.2727L32.7273 24.3636C32.6364 24.6364 32.6364 24.9091 32.7273 25.1818C33.2727 26.1818 33.7273 27.2727 34.0909 28.3636C34.1818 28.6364 34.3636 28.9091 34.6364 29L37.8182 30.0909V32.2727V34.3636L34.6364 35.4545C34.3636 35.5455 34.0909 35.8182 34.0909 36.0909C33.8182 37.1818 33.3636 38.2727 32.7273 39.3636C32.5455 39.6364 32.5455 39.9091 32.7273 40.1818L34.2727 43.1818L31.2727 46.1818L28.1818 44.6364C27.9091 44.5455 27.6364 44.5455 27.3636 44.6364C26.3636 45.1818 25.2727 45.6364 24.0909 46C23.8182 46.0909 23.5455 46.2727 23.4545 46.5454L22.3636 49.7273H18.1818L17.0909 46.5454C17 46.2727 16.7273 46 16.4545 46C15.3636 45.7273 14.2727 45.2727 13.2727 44.6364C13 44.4545 12.7273 44.4545 12.4545 44.6364L9.45454 46.1818L6.36363 43.1818L7.90909 40.1818C8 39.9091 8 39.6364 7.90909 39.3636C7.36363 38.3636 6.90909 37.2727 6.54545 36.1818C6.45454 35.9091 6.27272 35.6364 6 35.5454L2.72727 34.3636V30.0909Z" fill="white"/>
<path d="M20.2727 40.9091C24.9999 40.9091 28.909 37 28.909 32.2727C28.909 27.5455 24.9999 23.6364 20.2727 23.6364C15.5454 23.6364 11.6363 27.5455 11.6363 32.2727C11.6363 37 15.5454 40.9091 20.2727 40.9091ZM20.2727 25.3636C23.9999 25.3636 27.0908 28.4546 27.0908 32.1818C27.0908 35.9091 23.9999 39 20.2727 39C16.5454 39 13.4545 35.9091 13.4545 32.1818C13.4545 28.4546 16.5454 25.3636 20.2727 25.3636ZM36.2727 15.4546L38.0908 16.0909C38.2727 16.5455 38.4545 17 38.6363 17.3636L37.7272 19.0909C37.5454 19.4546 37.6363 19.8182 37.909 20.1818L40.1817 22.4546C40.4545 22.7273 40.909 22.8182 41.2727 22.6364L42.9999 21.8182C43.4545 22 43.8181 22.1818 44.2727 22.3636L44.909 24.1818C44.9999 24.5455 45.3636 24.8182 45.7272 24.8182H48.9999C49.3636 24.8182 49.7272 24.5455 49.8181 24.1818L50.4545 22.3636C50.909 22.1818 51.3636 22 51.7272 21.8182L53.4545 22.6364C53.8181 22.8182 54.1817 22.7273 54.5454 22.4546L56.8181 20.1818C57.0908 19.9091 57.1817 19.4546 56.9999 19.0909L56.1817 17.3636C56.3636 16.9091 56.5454 16.4546 56.7272 16.0909L58.5454 15.4546C58.909 15.3636 59.1817 15 59.1817 14.6364V11.3636C59.1817 11 58.909 10.6364 58.5454 10.5455L56.7272 9.9091C56.5454 9.45455 56.3636 9.00001 56.1817 8.63637L56.9999 6.9091C57.1817 6.54546 57.0908 6.18182 56.8181 5.81819L54.5454 3.54546C54.2727 3.27273 53.8181 3.18182 53.5454 3.36364L51.8181 4.18182C51.3636 4.00001 50.909 3.81819 50.5454 3.63637L49.909 1.81819C49.8181 1.45455 49.4545 1.18182 49.0908 1.18182H45.8181C45.4545 1.18182 45.0908 1.45455 44.9999 1.81819L44.3636 3.63637C43.909 3.81819 43.4545 4.00001 43.0908 4.18182L41.3636 3.36364C40.9999 3.18182 40.6363 3.27273 40.3636 3.54546L38.0908 5.81819C37.8181 6.09091 37.7272 6.54546 37.909 6.9091L38.7272 8.63637C38.5454 9.09091 38.3636 9.45455 38.1817 9.9091L36.3636 10.5455C35.9999 10.6364 35.7272 11 35.7272 11.3636V14.6364C35.6363 15 35.909 15.3636 36.2727 15.4546ZM37.4545 12L39.0908 11.4546C39.3636 11.3636 39.6363 11.0909 39.6363 10.8182C39.8181 10.1818 40.0908 9.63637 40.3636 9C40.5454 8.72728 40.5454 8.45455 40.3636 8.18182L39.6363 6.63637L40.9999 5.27273L42.5454 6.00001C42.8181 6.09091 43.0908 6.09091 43.3636 6.00001C43.909 5.63637 44.5454 5.45455 45.1817 5.27273C45.4545 5.18182 45.7272 5.00001 45.8181 4.72728L46.3636 3.09091H48.2727L48.8181 4.72728C48.909 5.00001 49.1817 5.27273 49.4545 5.27273C50.0908 5.45455 50.7272 5.72728 51.2727 6.00001C51.5454 6.18182 51.8181 6.18182 52.0908 6.00001L53.6363 5.27273L54.9999 6.63637L54.2727 8.18182C54.1817 8.45455 54.1817 8.81819 54.2727 9C54.6363 9.54546 54.8181 10.1818 54.9999 10.8182C55.0908 11.0909 55.2727 11.3636 55.5454 11.4546L57.1818 12V13.9091L55.6363 14.5455C55.3636 14.6364 55.0908 14.9091 55.0908 15.1818C54.909 15.8182 54.6363 16.4546 54.3636 17C54.1817 17.2727 54.1817 17.5455 54.3636 17.8182L55.0908 19.3636L53.7272 20.7273L52.1817 20C51.909 19.9091 51.6363 19.9091 51.3636 20C50.8181 20.3636 50.1817 20.5455 49.5454 20.7273C49.2727 20.8182 48.9999 21 48.909 21.2727L48.3636 22.9091H46.3636L45.8181 21.2727C45.7272 21 45.4545 20.7273 45.1817 20.7273C44.5454 20.5455 43.9999 20.2727 43.3636 20C43.0908 19.8182 42.8181 19.8182 42.5454 20L40.9999 20.7273L39.6363 19.3636L40.3636 17.8182C40.4545 17.5455 40.4545 17.1818 40.3636 17C39.9999 16.4546 39.8181 15.8182 39.6363 15.1818C39.5454 14.9091 39.3636 14.6364 39.0908 14.5455L37.4545 14V12Z" fill="white"/>
<path d="M47.3636 18.4546C50.3636 18.4546 52.8181 16 52.8181 13C52.8181 10 50.3636 7.54547 47.3636 7.54547C44.3636 7.54547 41.909 10 41.909 13C41.909 16 44.3636 18.4546 47.3636 18.4546ZM47.3636 9.36365C49.3636 9.36365 50.9999 11 50.9999 13C50.9999 15 49.3636 16.6364 47.3636 16.6364C45.3636 16.6364 43.7272 15 43.7272 13C43.7272 11 45.3636 9.36365 47.3636 9.36365ZM36.6363 43.2727C36.6363 47.0909 39.8181 50.2727 43.6363 50.2727C47.4545 50.2727 50.6363 47.0909 50.6363 43.2727C50.6363 39.4546 47.4545 36.2727 43.6363 36.2727C39.8181 36.2727 36.6363 39.3637 36.6363 43.2727ZM43.6363 38.0909C46.4545 38.0909 48.8181 40.4546 48.8181 43.2727C48.8181 46.0909 46.4545 48.4546 43.6363 48.4546C40.8181 48.4546 38.4545 46.0909 38.4545 43.2727C38.4545 40.4546 40.7272 38.0909 43.6363 38.0909Z" fill="white"/>
</svg>
