<svg width="40" height="40" viewBox="0 0 40 40" fill="none" xmlns="http://www.w3.org/2000/svg">
<path d="M30.9819 36.7048H28.9105C28.6243 36.7048 28.3927 36.4732 28.3927 36.187C28.3927 35.9007 28.6243 35.6691 28.9105 35.6691H30.9819C31.2681 35.6691 31.4998 35.9007 31.4998 36.187C31.4998 36.4732 31.2681 36.7048 30.9819 36.7048ZM26.8391 36.7048H24.7677C24.4815 36.7048 24.2499 36.4732 24.2499 36.187C24.2499 35.9007 24.4815 35.6691 24.7677 35.6691H26.8391C27.1254 35.6691 27.357 35.9007 27.357 36.187C27.357 36.4732 27.1254 36.7048 26.8391 36.7048ZM22.6964 36.7048H20.625C20.3387 36.7048 20.1071 36.4732 20.1071 36.187C20.1071 35.9007 20.3387 35.6691 20.625 35.6691H22.6964C22.9826 35.6691 23.2142 35.9007 23.2142 36.187C23.2142 36.4732 22.9826 36.7048 22.6964 36.7048ZM18.5536 36.7048H17.2509C16.9459 36.7043 16.6481 36.6679 16.3644 36.5976C16.0867 36.5283 15.9183 36.2472 15.9871 35.9695C16.0569 35.6924 16.3365 35.5245 16.6152 35.5923C16.8175 35.6428 17.0314 35.6686 17.2519 35.6691H18.5536C18.8398 35.6691 19.0714 35.9007 19.0714 36.187C19.0714 36.4732 18.8398 36.7048 18.5536 36.7048ZM14.8088 35.478C14.649 35.478 14.4917 35.4046 14.3906 35.2661C13.938 34.6476 13.6892 33.8885 13.6892 33.1284L13.6917 32.9964C13.7028 32.7102 13.9385 32.4786 14.2303 32.5004C14.516 32.512 14.738 32.7532 14.7264 33.0389L14.7249 33.1284C14.7249 33.6706 14.9029 34.2122 15.226 34.6542C15.3949 34.8853 15.3448 35.2094 15.1142 35.3778C15.0217 35.4456 14.915 35.478 14.8088 35.478ZM14.9742 31.6558C14.8523 31.6558 14.7304 31.6133 14.6323 31.5269C14.4174 31.3377 14.3966 31.0105 14.5853 30.7961L16.0493 29.2916C16.2491 29.0878 16.5768 29.0838 16.7816 29.2835C16.9859 29.4833 16.9899 29.811 16.7897 30.0158L15.3631 31.4798C15.2604 31.5961 15.1178 31.6558 14.9742 31.6558ZM17.8668 28.6898C17.7363 28.6898 17.6059 28.6408 17.5047 28.5422C17.3004 28.3424 17.2964 28.0147 17.4966 27.8099L18.9445 26.3282C19.1442 26.1244 19.4719 26.1198 19.6768 26.3201C19.8811 26.5198 19.8851 26.8475 19.6849 27.0523L18.237 28.5341C18.1359 28.6377 18.0013 28.6898 17.8668 28.6898ZM20.762 25.7269C20.6315 25.7269 20.5011 25.6778 20.3999 25.5797C20.1956 25.3794 20.1916 25.0517 20.3913 24.8469L21.8387 23.3652C22.0394 23.1614 22.3666 23.1579 22.5714 23.3566C22.7757 23.5569 22.7798 23.8846 22.58 24.0894L21.1327 25.5711C21.031 25.6748 20.8965 25.7269 20.762 25.7269ZM23.6572 22.7634C23.5267 22.7634 23.3963 22.7144 23.2951 22.6157C23.0908 22.416 23.0868 22.0883 23.287 21.8835L24.7086 20.421C24.8962 20.204 25.2239 20.1808 25.4388 20.3684C25.6553 20.5555 25.6785 20.8827 25.4914 21.0986C25.4429 21.1548 25.3918 21.2109 25.3392 21.265L24.0274 22.6077C23.9262 22.7113 23.7917 22.7634 23.6572 22.7634ZM25.8373 18.8689L25.3195 18.8573C25.3205 18.2474 25.1344 17.6952 24.7966 17.2471C24.6241 17.0185 24.6696 16.6939 24.8977 16.5219C25.1253 16.348 25.4504 16.394 25.6229 16.6231C26.0962 17.2497 26.3562 18.0244 26.3557 18.8037L25.8373 18.8689ZM23.5116 16.3434C23.4726 16.3434 23.4332 16.3394 23.3937 16.3298C23.2011 16.2853 22.9993 16.2625 22.7945 16.2625H21.4462C21.16 16.2625 20.9284 16.0309 20.9284 15.7447C20.9284 15.4584 21.16 15.2268 21.4462 15.2268H22.7945C23.0782 15.2268 23.3583 15.2587 23.6284 15.3214C23.9065 15.3856 24.08 15.6642 24.0152 15.9429C23.9601 16.1821 23.7467 16.3434 23.5116 16.3434ZM19.3749 16.2625H17.3035C17.0172 16.2625 16.7856 16.0309 16.7856 15.7447C16.7856 15.4584 17.0172 15.2268 17.3035 15.2268H19.3749C19.6611 15.2268 19.8927 15.4584 19.8927 15.7447C19.8927 16.0309 19.6611 16.2625 19.3749 16.2625ZM15.2321 16.2625H13.1607C12.8745 16.2625 12.6428 16.0309 12.6428 15.7447C12.6428 15.4584 12.8745 15.2268 13.1607 15.2268H15.2321C15.5183 15.2268 15.7499 15.4584 15.7499 15.7447C15.7499 16.0309 15.5183 16.2625 15.2321 16.2625ZM11.0893 16.2625H9.01791C8.73168 16.2625 8.50006 16.0309 8.50006 15.7447C8.50006 15.4584 8.73168 15.2268 9.01791 15.2268H11.0893C11.3755 15.2268 11.6071 15.4584 11.6071 15.7447C11.6071 16.0309 11.3755 16.2625 11.0893 16.2625Z" fill="#B0B0B0"/>
<path d="M8.93145 1.88672C5.64201 1.88672 2.97052 4.54817 2.97052 7.83768C2.97052 10.3666 6.49372 14.9517 8.12287 16.9367C8.54286 17.4484 9.31967 17.448 9.73922 16.936C11.3659 14.9506 14.8823 10.3663 14.8823 7.83767C14.8824 4.54817 12.2209 1.88672 8.93145 1.88672Z" fill="#B0B0B0"/>
<path d="M8.93082 11.1578C7.09667 11.1578 5.61145 9.67253 5.61145 7.83845C5.61145 6.01428 7.09668 4.52905 8.93082 4.52905C10.7549 4.52905 12.2402 6.01428 12.2402 7.83845C12.2402 9.67253 10.7549 11.1578 8.93082 11.1578Z" fill="white"/>
<path d="M8.9321 1.88672C8.86232 1.88672 8.78255 1.88672 8.71277 1.8967C11.8926 2.01631 14.4344 4.62793 14.4344 7.83768C14.4344 10.3695 10.9157 14.9548 9.29094 16.9385C9.13147 17.1279 8.9321 17.2475 8.71277 17.2974C9.07161 17.3771 9.48033 17.2574 9.73951 16.9385C11.3643 14.9548 14.883 10.3695 14.883 7.83768C14.883 4.54817 12.2215 1.88672 8.9321 1.88672Z" fill="#B0B0B0"/>
<path d="M5.28312 7.83768C5.28312 4.9569 7.33654 2.55456 10.0578 2.00633C9.69896 1.92663 9.32017 1.88672 8.93146 1.88672C5.64201 1.88672 2.97052 4.54817 2.97052 7.83768C2.97052 10.3695 6.48927 14.9548 8.12405 16.9385C8.54269 17.4468 9.32017 17.4468 9.73887 16.9385C9.84851 16.8089 9.96811 16.6694 10.0877 16.5098C8.3533 14.3568 5.28312 10.2001 5.28312 7.83768Z" fill="#B0B0B0"/>
<path d="M31.08 22.678C27.7905 22.678 25.119 25.3394 25.119 28.6289C25.119 31.1578 28.6422 35.7429 30.2714 37.7279C30.6914 38.2396 31.4682 38.2393 31.8877 37.7272C33.5144 35.7419 37.0308 31.1576 37.0308 28.6289C37.0309 25.3394 34.3694 22.678 31.08 22.678Z" fill="#B0B0B0"/>
<path d="M31.0792 31.949C29.2451 31.949 27.7598 30.4638 27.7598 28.6297C27.7598 26.8055 29.2451 25.3203 31.0792 25.3203C32.9033 25.3203 34.3886 26.8055 34.3886 28.6297C34.3886 30.4638 32.9033 31.949 31.0792 31.949Z" fill="white"/>
<path d="M31.0786 22.678C31.0088 22.678 30.929 22.678 30.8593 22.688C34.0391 22.8076 36.5809 25.4192 36.5809 28.6289C36.5809 31.1608 33.0622 35.7461 31.4374 37.7298C31.278 37.9192 31.0786 38.0388 30.8593 38.0886C31.2181 38.1684 31.6268 38.0487 31.886 37.7298C33.5108 35.7461 37.0295 31.1608 37.0295 28.6289C37.0295 25.3394 34.368 22.678 31.0786 22.678Z" fill="#B0B0B0"/>
<path d="M27.4316 28.6289C27.4316 25.7482 29.485 23.3458 32.2063 22.7976C31.8474 22.7179 31.4687 22.678 31.08 22.678C27.7905 22.678 25.119 25.3394 25.119 28.6289C25.119 31.1608 28.6378 35.7461 30.2725 37.7298C30.6912 38.2381 31.4687 38.2381 31.8874 37.7298C31.997 37.6002 32.1166 37.4606 32.2362 37.3011C30.5018 35.148 27.4316 30.9914 27.4316 28.6289Z" fill="#B0B0B0"/>
</svg>
