<svg width="84" height="80" viewBox="0 0 84 80" fill="none" xmlns="http://www.w3.org/2000/svg">
<g filter="url(#filter0_d_1_355)">
<path d="M70.655 33.107C70.5437 32.9429 70.3943 32.8087 70.2197 32.716C70.0452 32.6233 69.8508 32.5749 69.6535 32.575H58.9047V25.1822C58.9048 25.0217 58.8735 24.8627 58.8125 24.7143C58.7516 24.566 58.6622 24.4312 58.5495 24.3176C58.4368 24.2041 58.3029 24.1141 58.1557 24.0527C58.0084 23.9913 57.8505 23.9597 57.6911 23.9598H15.6203C15.2985 23.9601 14.99 24.0889 14.7624 24.3181C14.5349 24.5473 14.407 24.8581 14.4067 25.1822V31.8766H5.21854C3.60074 31.8766 3.60074 34.3214 5.21854 34.3214H14.4067V36.2278H10.535C8.91717 36.2278 8.91717 38.6726 10.535 38.6726H14.4067V40.5766H5.21854C3.60074 40.5766 3.60074 43.0214 5.21854 43.0214H14.4067V44.9278H10.535C8.91717 44.9278 8.91717 47.3726 10.535 47.3726H14.4067V58.5374C14.407 58.8616 14.5349 59.1724 14.7624 59.4016C14.99 59.6308 15.2985 59.7596 15.6203 59.7598H20.4292C20.6413 60.9516 21.1618 62.0659 21.9382 62.9902H5.21854C3.60074 62.9902 3.60074 65.435 5.21854 65.435H78.0332C79.651 65.435 79.651 62.9902 78.0332 62.9902H73.0829C73.86 62.0664 74.3807 60.9519 74.5919 59.7598H78.0292C78.3511 59.7598 78.6598 59.6311 78.8873 59.4018C79.1149 59.1726 79.2428 58.8616 79.2428 58.5374V46.1374C79.2434 45.8916 79.1703 45.6512 79.0331 45.4478L70.655 33.107ZM31.2472 60.2398C30.8843 61.1227 30.2491 61.8646 29.4355 62.3559C28.6219 62.8472 27.673 63.0619 26.7289 62.9683C25.7849 62.8747 24.8957 62.4777 24.1929 61.836C23.49 61.1943 23.0106 60.3419 22.8256 59.4047C22.6406 58.4675 22.7598 57.4952 23.1655 56.6315C23.5711 55.7678 24.2419 55.0583 25.0785 54.6081C25.9152 54.1578 26.8735 53.9905 27.8118 54.1309C28.7501 54.2713 29.6187 54.712 30.2893 55.3878C30.9074 56.0106 31.3282 56.8039 31.4987 57.6675C31.6692 58.5312 31.5817 59.4263 31.2472 60.2398ZM27.1625 51.639C25.5568 51.6389 24.0022 52.208 22.7711 53.2465C21.54 54.2849 20.711 55.7267 20.4292 57.319H16.8338V47.375H25.0984C26.7162 47.375 26.7162 44.9302 25.0984 44.9302H16.8338V43.0214H19.7851C21.4037 43.0214 21.4037 40.5766 19.7851 40.5766H16.8338V38.6726H25.0984C26.7162 38.6726 26.7162 36.2278 25.0984 36.2278H16.8338V34.3198H19.7851C21.4037 34.3198 21.4037 31.875 19.7851 31.875H16.8338V26.403H56.4776V57.315H33.8966C33.6134 55.7235 32.7837 54.283 31.5527 53.2454C30.3217 52.2078 28.7677 51.6392 27.1625 51.639ZM32.3845 62.9902C33.1616 62.0664 33.6822 60.9519 33.8935 59.7598H61.1277C61.3402 60.9515 61.8607 62.0657 62.6367 62.9902H32.3845ZM71.9464 60.2398C71.5835 61.1227 70.9483 61.8646 70.1347 62.3559C69.3211 62.8472 68.3722 63.0619 67.4281 62.9683C66.4841 62.8747 65.595 62.4777 64.8921 61.836C64.1892 61.1943 63.7099 60.3419 63.5249 59.4047C63.3399 58.4675 63.459 57.4952 63.8647 56.6315C64.2704 55.7678 64.9411 55.0583 65.7778 54.6081C66.6145 54.1578 67.5727 53.9905 68.5111 54.1309C69.4494 54.2713 70.318 54.712 70.9886 55.3878C71.6066 56.0106 72.0275 56.8039 72.198 57.6675C72.3684 58.5312 72.2809 59.4263 71.9464 60.2398ZM76.8197 57.3142H74.5959C74.3128 55.7227 73.4832 54.2821 72.2521 53.2445C71.021 52.2068 69.467 51.6383 67.8618 51.6383C66.2566 51.6383 64.7025 52.2068 63.4714 53.2445C62.2404 54.2821 61.4107 55.7227 61.1277 57.3142H58.9039V35.0198H69.0134L76.8197 46.5142V57.3142Z" fill="#005CCE"/>
<path d="M67.5724 36.2711H61.4752C61.1534 36.2713 60.8449 36.4002 60.6173 36.6294C60.3898 36.8586 60.2619 37.1694 60.2617 37.4935V45.3527C60.2619 45.6768 60.3898 45.9876 60.6173 46.2168C60.8449 46.446 61.1534 46.5749 61.4752 46.5751H73.0913C73.3139 46.5751 73.5321 46.5135 73.7222 46.3969C73.9123 46.2804 74.067 46.1134 74.1692 45.9143C74.2714 45.7152 74.3173 45.4916 74.3019 45.2679C74.2865 45.0443 74.2103 44.8293 74.0817 44.6463L68.5635 36.7879C68.4513 36.6283 68.3028 36.498 68.1303 36.4081C67.9579 36.3182 67.7665 36.2712 67.5724 36.2711ZM62.6888 44.1303V38.7199H66.9449L70.746 44.1343L62.6888 44.1303Z" fill="#005CCE"/>
</g>
<defs>
<filter id="filter0_d_1_355" x="-2.08374" y="0" width="87.4209" height="88" filterUnits="userSpaceOnUse" color-interpolation-filters="sRGB">
<feFlood flood-opacity="0" result="BackgroundImageFix"/>
<feColorMatrix in="SourceAlpha" type="matrix" values="0 0 0 0 0 0 0 0 0 0 0 0 0 0 0 0 0 0 127 0" result="hardAlpha"/>
<feOffset dy="4"/>
<feGaussianBlur stdDeviation="2"/>
<feComposite in2="hardAlpha" operator="out"/>
<feColorMatrix type="matrix" values="0 0 0 0 0 0 0 0 0 0 0 0 0 0 0 0 0 0 0.25 0"/>
<feBlend mode="normal" in2="BackgroundImageFix" result="effect1_dropShadow_1_355"/>
<feBlend mode="normal" in="SourceGraphic" in2="effect1_dropShadow_1_355" result="shape"/>
</filter>
</defs>
</svg>
