<svg width="86" height="87" viewBox="0 0 86 87" fill="none" xmlns="http://www.w3.org/2000/svg">
<g filter="url(#filter0_d_1_351)">
<path d="M43 78.75C21.75 78.75 4.25 61.25 4.25 40C4.25 18.75 21.625 1.25 43 1.25C64.375 1.25 81.75 18.625 81.75 40C81.75 61.375 64.25 78.75 43 78.75ZM43 3.5C22.875 3.5 6.5 19.875 6.5 40C6.5 60.125 22.875 76.5 43 76.5C63.125 76.5 79.5 60.125 79.5 40C79.5 19.875 63.125 3.5 43 3.5Z" fill="#005CCE"/>
<path d="M43 11.875C42.375 11.875 41.75 11.375 41.75 10.625V6.375C41.75 5.75 42.25 5.125 43 5.125C43.75 5.125 44.25 5.625 44.25 6.375V10.75C44.25 11.375 43.625 11.875 43 11.875ZM28.375 15.875C28 15.875 27.5 15.625 27.375 15.25L25.25 11.5C24.875 10.875 25.125 10.125 25.625 9.75C26.25 9.5 27 9.625 27.375 10.25L29.5 14C29.875 14.625 29.625 15.375 29 15.625C28.875 15.75 28.625 15.875 28.375 15.875ZM17.75 26.5C17.5 26.5 17.375 26.5 17.125 26.375L13.375 24.25C12.75 23.875 12.625 23.125 12.875 22.625C13.25 22 14 21.75 14.5 22.125L18.25 24.25C18.875 24.625 19 25.375 18.75 25.875C18.5 26.375 18 26.5 17.75 26.5ZM13.875 41.25H9.37505C8.75005 41.25 8.12505 40.75 8.12505 40C8.12505 39.25 8.62505 38.75 9.37505 38.75H13.75C14.375 38.75 15 39.25 15 40C14.875 40.75 14.375 41.25 13.875 41.25ZM14 57.875C13.625 57.875 13.125 57.625 13 57.25C12.625 56.75 12.75 56 13.375 55.625L17.125 53.5C17.75 53.125 18.5 53.375 18.75 54C19.125 54.625 18.875 55.375 18.25 55.625L14.5 57.75C14.25 57.875 14 57.875 14 57.875ZM26.125 70.25C25.875 70.25 25.75 70.25 25.5 70.125C24.875 69.75 24.75 69 25 68.5L27.125 64.75C27.5 64.125 28.25 64 28.75 64.25C29.375 64.625 29.5 65.375 29.25 65.875L27.25 69.625C27 70 26.625 70.25 26.125 70.25ZM43 74.75C42.375 74.75 41.75 74.25 41.75 73.5V69.125C41.75 68.5 42.25 67.875 43 67.875C43.75 67.875 44.25 68.375 44.25 69.125V73.5C44.25 74.25 43.625 74.75 43 74.75ZM59.875 70.25C59.5 70.25 59 70 58.875 69.625L56.75 65.875C56.375 65.25 56.625 64.5 57.25 64.25C57.875 63.875 58.625 64.125 58.875 64.75L61 68.5C61.375 69.125 61.125 69.875 60.5 70.125C60.25 70.25 60 70.25 59.875 70.25ZM72.125 57.875C71.875 57.875 71.75 57.875 71.5 57.75L67.75 55.625C67.125 55.25 67 54.5 67.25 54C67.625 53.375 68.375 53.25 68.875 53.5L72.625 55.625C73.25 56 73.375 56.75 73.125 57.25C72.875 57.75 72.5 57.875 72.125 57.875ZM76.625 41.25H72.25C71.625 41.25 71 40.75 71 40C71 39.25 71.5 38.75 72.25 38.75H76.625C77.25 38.75 77.875 39.25 77.875 40C77.875 40.75 77.25 41.25 76.625 41.25ZM68.25 26.5C67.875 26.5 67.375 26.25 67.25 25.875C66.875 25.25 67.125 24.5 67.75 24.25L71.5 22.125C72.125 21.75 72.875 22 73.125 22.625C73.5 23.25 73.25 24 72.625 24.25L68.875 26.375C68.625 26.5 68.5 26.5 68.25 26.5ZM57.625 15.875C57.375 15.875 57.25 15.875 57 15.75C56.375 15.375 56.25 14.625 56.5 14.125L58.625 10.25C59 9.625 59.75 9.5 60.25 9.75C60.875 10.125 61.125 10.875 60.75 11.375L58.625 15.125C58.375 15.625 58 15.875 57.625 15.875ZM43 44.375C41.125 44.375 39.75 42.875 39.75 41.125C39.75 39.375 41.25 37.875 43 37.875C44.75 37.875 46.25 39.375 46.25 41.125C46.25 42.875 44.875 44.375 43 44.375ZM43 40C42.5 40 42 40.5 42 41C42 41.5 42.5 42 43 42C43.5 42 44 41.5 44 41C44 40.5 43.5 40 43 40Z" fill="#005CCE"/>
<path d="M58.125 42.125H45.125C44.5 42.125 43.875 41.625 43.875 40.875C43.875 40.125 44.375 39.625 45.125 39.625H58.25C58.875 39.625 59.5 40.125 59.5 40.875C59.5 41.75 58.875 42.125 58.125 42.125ZM43 40C42.375 40 41.75 39.5 41.75 38.75V17.125C41.75 16.5 42.25 15.875 43 15.875C43.625 15.875 44.25 16.375 44.25 17.125V38.75C44.25 39.5 43.625 40 43 40Z" fill="#005CCE"/>
</g>
<defs>
<filter id="filter0_d_1_351" x="-1" y="0" width="88" height="88" filterUnits="userSpaceOnUse" color-interpolation-filters="sRGB">
<feFlood flood-opacity="0" result="BackgroundImageFix"/>
<feColorMatrix in="SourceAlpha" type="matrix" values="0 0 0 0 0 0 0 0 0 0 0 0 0 0 0 0 0 0 127 0" result="hardAlpha"/>
<feOffset dy="4"/>
<feGaussianBlur stdDeviation="2"/>
<feComposite in2="hardAlpha" operator="out"/>
<feColorMatrix type="matrix" values="0 0 0 0 0 0 0 0 0 0 0 0 0 0 0 0 0 0 0.25 0"/>
<feBlend mode="normal" in2="BackgroundImageFix" result="effect1_dropShadow_1_351"/>
<feBlend mode="normal" in="SourceGraphic" in2="effect1_dropShadow_1_351" result="shape"/>
</filter>
</defs>
</svg>
